<svg width="184" height="100" viewBox="0 0 184 100" fill="none" xmlns="http://www.w3.org/2000/svg">
<path fill-rule="evenodd" clip-rule="evenodd" d="M32 41.7521L45.031 35L58.1972 41.7521L45.031 48.5211L32 41.7521ZM110.211 45.031V44.8704C110.211 42.6479 111.521 41.9296 113.727 42.0901V38.0338C108.445 37.7127 105.935 40.3493 105.935 44.8704V45.031H103.544V49.0958H105.935V61.4H110.211V49.0958H112.738H113.727H115.13V61.4H119.406V49.0958H122.921V45.031H119.406V44.8704C119.406 42.6479 120.69 41.9296 122.921 42.0901V38.0338C117.639 37.7127 115.13 40.3493 115.13 44.8704V45.031H113.727H112.738H110.211ZM80.3549 49.4845C81.707 48.4028 82.5352 46.8648 82.5352 44.8958C82.5352 41.0592 79.4085 38.4479 75.4789 38.4479H66.3606V61.3493H76.2141C80.2366 61.3493 83.4479 58.6451 83.4479 54.7155C83.4056 52.3493 82.2141 50.5408 80.3549 49.4845ZM75.5042 42.6901C76.9746 42.6901 77.9887 43.7718 77.9887 45.2169C77.9887 46.662 76.9324 47.7437 75.5042 47.7437H70.9324V42.6901H75.5042ZM76.1972 57.1493H70.9324V51.7577H76.1972C77.7606 51.7577 78.8845 52.907 78.8845 54.4451C78.8845 56 77.7521 57.1493 76.1972 57.1493ZM96.7746 45.0056V53.8451C96.7746 56.693 95.2113 57.9099 93.1239 57.9099C91.1972 57.9099 89.8366 56.7606 89.8366 54.538V45.0056H85.5606V55.062C85.5606 59.4225 88.2901 61.831 91.831 61.831C94.062 61.831 95.7859 61.0028 96.7493 59.5324V61.3662H101.025V45.0056H96.7746ZM140.625 54.9183H128.127C128.744 57.0732 130.535 57.9944 132.766 57.9944C134.439 57.9944 135.775 57.3099 136.485 56.3634L139.932 58.3155C138.394 60.538 135.91 61.831 132.715 61.831C127.155 61.831 123.639 58.0704 123.639 53.1775C123.639 48.2845 127.18 44.5239 132.394 44.5239C137.287 44.5239 140.777 48.3606 140.777 53.1775C140.794 53.8197 140.718 54.369 140.625 54.9183ZM132.403 48.3606C130.104 48.3606 128.541 49.5775 128.059 51.6648H136.51C135.986 49.2986 134.194 48.3606 132.403 48.3606ZM146.972 47.8282V45.0056H142.696V61.3662H146.972V53.5408C146.972 50.1014 149.777 49.1127 152 49.3831V44.6761C149.913 44.6845 147.817 45.6056 146.972 47.8282ZM45.031 60.0986L36.1408 55.2817L32 57.5211L45.031 64.5775L58.1972 57.5211L54.0141 55.2817L45.031 60.0986ZM36.1408 47.6761L45.031 52.0451L54.0141 47.6761L58.1972 49.7127L45.031 56.1268L32 49.7127L36.1408 47.6761Z" fill="#231F20"/>
</svg>
