<svg width="184" height="101" viewBox="0 0 184 101" fill="none" xmlns="http://www.w3.org/2000/svg">
<path d="M88.0928 41.8274L79.0021 54.1645L69.9115 41.8274V58.3531H72.1841V48.7431L79.0021 57.9963L85.8201 48.7431V58.3531H88.0928V41.8274ZM96.0471 58.3531H93.7744V42.4444H101.161C102.517 42.4444 103.817 42.9832 104.776 43.9421C105.735 44.9011 106.274 46.2017 106.274 47.5579C106.274 48.9141 105.735 50.2147 104.776 51.1737C103.817 52.1327 102.517 52.6714 101.161 52.6714H96.0471V58.3531ZM96.0471 50.3987H101.161C101.914 50.3987 102.637 50.0994 103.169 49.5667C103.702 49.0339 104.001 48.3113 104.001 47.5579C104.001 46.8045 103.702 46.0819 103.169 45.5491C102.637 45.0164 101.914 44.7171 101.161 44.7171H96.0471V50.3987ZM122.027 58.3531H124.612L115.933 42.3308L107.255 58.3531H109.84L111.686 54.9441H120.18L122.027 58.3531ZM112.916 52.6714L115.933 47.1034L118.95 52.6714H112.916ZM138.091 53.9043C138.091 56.5986 135.62 58.6315 132.342 58.6315C131.279 58.6107 130.234 58.3608 129.278 57.899C128.321 57.4371 127.475 56.7742 126.798 55.9554L128.401 54.3929C128.864 55.0033 129.459 55.5015 130.141 55.8507C130.823 56.1998 131.575 56.391 132.342 56.4099C134.387 56.4099 135.819 55.3804 135.819 53.91C135.819 52.6487 134.96 51.801 133.194 51.3158L131.273 50.876C127.183 49.8715 127.183 47.4181 127.183 46.6113C127.183 44.0751 129.228 42.3706 132.279 42.3706C133.262 42.3674 134.235 42.5735 135.132 42.9751C136.03 43.3768 136.832 43.9648 137.485 44.7L135.882 46.2659C134.946 45.2588 133.653 44.6584 132.279 44.5932C130.485 44.5932 129.455 45.3284 129.455 46.6125C129.455 46.9954 129.601 48.2738 131.47 48.6761L133.212 49.0681C136.405 49.8158 138.091 51.4896 138.091 53.9043ZM154 53.9043C154 56.5986 151.528 58.6315 148.25 58.6315C147.188 58.6107 146.143 58.3608 145.186 57.899C144.23 57.4371 143.384 56.7742 142.707 55.9554L144.309 54.3929C144.773 55.0033 145.368 55.5015 146.05 55.8507C146.732 56.1998 147.484 56.391 148.25 56.4099C150.296 56.4099 151.727 55.3804 151.727 53.91C151.727 52.6487 150.868 51.801 149.102 51.3158L147.182 50.876C143.091 49.8715 143.091 47.4181 143.091 46.6113C143.091 44.0751 145.137 42.3706 148.188 42.3706C149.171 42.3674 150.144 42.5735 151.041 42.9751C151.939 43.3768 152.74 43.9648 153.393 44.7L151.791 46.2659C150.855 45.2588 149.561 44.6584 148.188 44.5932C146.393 44.5932 145.364 45.3284 145.364 46.6125C145.364 46.9954 145.509 48.2738 147.379 48.6761L149.121 49.0681C152.314 49.8158 154 51.4896 154 53.9043ZM41.9452 54.8134C41.0712 55.6875 39.9576 56.2827 38.7452 56.5239C37.5328 56.7651 36.2762 56.6413 35.1342 56.1683C33.9922 55.6953 33.016 54.8942 32.3293 53.8664C31.6425 52.8387 31.276 51.6303 31.276 50.3942C31.276 49.1581 31.6425 47.9497 32.3293 46.922C33.016 45.8942 33.9922 45.0931 35.1342 44.6201C36.2762 44.1471 37.5328 44.0233 38.7452 44.2645C39.9576 44.5057 41.0712 45.1009 41.9452 45.975V45.975L42.3475 46.3773L43.9542 44.7739L43.5486 44.3762C42.3567 43.1844 40.8381 42.3727 39.1849 42.0439C37.5317 41.7152 35.8182 41.884 34.2609 42.529C32.7037 43.1741 31.3727 44.2664 30.4363 45.6679C29.4998 47.0694 29 48.7172 29 50.4027C29 52.0883 29.4998 53.736 30.4363 55.1375C31.3727 56.539 32.7037 57.6313 34.2609 58.2764C35.8182 58.9215 37.5317 59.0903 39.1849 58.7615C40.8381 58.4327 42.3567 57.6211 43.5486 56.4293V56.4293L43.9508 56.0281L42.3441 54.4202L41.9452 54.8134ZM56.8436 41.8763C55.1581 41.8763 53.5103 42.3761 52.1088 43.3126C50.7073 44.249 49.6149 45.58 48.9699 47.1373C48.3248 48.6946 48.1561 50.4082 48.4849 52.0614C48.8138 53.7146 49.6254 55.2332 50.8173 56.4251C52.0092 57.6169 53.5278 58.4286 55.181 58.7575C56.8342 59.0863 58.5478 58.9175 60.1051 58.2725C61.6623 57.6274 62.9934 56.5351 63.9298 55.1336C64.8663 53.7321 65.3661 52.0843 65.3661 50.3987C65.3661 49.2796 65.1457 48.1713 64.7174 47.1373C64.2891 46.1033 63.6613 45.1638 62.87 44.3724C62.0786 43.581 61.1391 42.9533 60.1051 42.525C59.0711 42.0967 57.9628 41.8763 56.8436 41.8763V41.8763ZM56.8436 56.6486C55.6075 56.6486 54.3992 56.282 53.3714 55.5953C52.3437 54.9085 51.5426 53.9325 51.0696 52.7904C50.5965 51.6484 50.4728 50.3918 50.7139 49.1795C50.9551 47.9671 51.5503 46.8535 52.4244 45.9794C53.2984 45.1054 54.412 44.5102 55.6244 44.269C56.8367 44.0279 58.0933 44.1516 59.2354 44.6247C60.3774 45.0977 61.3534 45.8987 62.0402 46.9265C62.7269 47.9543 63.0935 49.1626 63.0935 50.3987C63.0935 52.0563 62.435 53.646 61.2629 54.818C60.0909 55.9901 58.5012 56.6486 56.8436 56.6486ZM60.4879 48.3613L58.8811 46.7545L53.1994 52.4362L54.8062 54.043L60.4879 48.3613Z" fill="black"/>
</svg>
