<svg width="184" height="101" viewBox="0 0 184 101" fill="none" xmlns="http://www.w3.org/2000/svg">
<path fill-rule="evenodd" clip-rule="evenodd" d="M130.381 69.2604C129.273 70.5446 127.025 70.3519 126.655 68.4741C126.479 67.543 126.736 66.4196 127.137 65.633C128.036 63.9156 129.658 62.5032 131.506 62.0378C131.506 63.0972 131.506 64.4935 131.473 65.5689C131.441 66.7567 131.184 68.3134 130.381 69.2604ZM112.507 43.885C113.535 43.9492 114.354 45.0725 114.081 46.9826C113.744 49.2459 111.865 51.6692 109.729 52.2149C109.392 51.4125 109.231 49.7753 109.424 48.1703C109.777 45.233 111.287 43.8207 112.507 43.885ZM72.4723 54.8312C70.8824 52.7125 70.9465 50.1445 71.4446 47.7049C73.0021 51.2038 77.1617 51.8138 79.731 51.3001C79.3939 53.9966 77.9802 56.356 75.5396 56.356C74.1746 56.372 73.1786 55.7782 72.4723 54.8312ZM78.093 44.944C78.8765 45.7436 79.4052 46.9091 79.6471 48.2027C79.6486 48.2026 79.6508 48.2185 79.6508 48.2185C79.6498 48.2132 79.6483 48.208 79.6471 48.2027C77.8498 48.4588 76.1168 48.1217 74.849 47.1429C73.9339 46.4208 73.6927 45.2813 74.0782 44.5911C74.64 43.5961 76.3266 43.1626 78.093 44.944ZM53.6191 31.7829C54.7268 30.4829 56.9752 30.6914 57.3286 32.5694C57.5051 33.4842 57.2642 34.6077 56.863 35.3942C55.9633 37.1116 54.3414 38.5239 52.4945 39.0055C52.4945 37.9303 52.4784 36.5498 52.5269 35.4744C52.5589 34.2868 52.816 32.7138 53.6191 31.7829ZM135.601 59.6142C135.616 54.0287 135.601 48.4432 135.601 42.8576C135.601 41.4774 131.634 41.3969 131.506 42.7935C131.506 43.3552 131.506 43.933 131.489 44.4947C131.425 47.5604 129.964 53.2903 127.539 55.3768C126.88 55.9388 126.286 55.9708 125.869 55.6657C125.499 55.3928 125.403 54.7029 125.403 54.109V53.3386C125.403 49.8878 125.419 46.3245 125.403 42.8736C125.403 41.4932 121.436 41.3969 121.308 42.7935C121.308 46.0034 121.308 49.1174 121.324 52.2953C118.706 56.4684 112.652 58.4265 110.147 53.4829C111.705 54.0769 113.358 53.7879 114.483 53.1941C116.426 52.1668 117.903 50.4656 118.192 47.7691C118.465 39.8722 108.027 38.797 105.698 46.8382C105.313 48.1703 105.104 49.5988 105.153 50.9952C105.2 52.3273 105.474 53.5632 105.939 54.6547C105.088 55.4892 104.109 56.067 103.129 56.035C101.844 55.9868 101.973 54.398 101.973 53.4829V47.464C101.973 46.7419 101.973 46.0196 101.908 45.3135C101.7 43.2109 100.094 41.5415 97.8457 41.3969C94.6496 41.3489 92.4015 44.3182 91.2934 47.5765C91.2776 45.7628 91.2934 44.6873 91.2934 42.8576C91.2776 41.4933 87.6 41.3969 87.1824 42.8415C86.6525 44.6713 84.9179 46.0998 83.2959 46.9503C82.7983 45.7467 82.1721 44.6393 81.3049 43.6924C77.7395 39.8241 72.5848 40.5305 69.5653 43.7243C67.1726 46.2604 66.4503 50.8347 67.7348 54.0446C66.7874 55.1684 65.4867 56.0832 64.3304 56.035C63.7521 56.0029 63.431 55.6657 63.2864 55.1361C63.1417 54.6224 63.1741 54.0127 63.1741 53.4829C63.1741 51.4766 63.1579 49.4703 63.1741 47.464C63.1741 46.7419 63.1741 46.0196 63.11 45.3135C62.901 43.2109 61.6645 41.5254 59.32 41.3811C55.2891 41.2043 53.6671 45.1048 52.4784 48.3147V41.4613C53.3298 41.3167 54.1489 41.108 54.9676 40.8674C63.8484 38.3155 62.13 28.9901 55.514 28.8297C51.0494 28.7334 48.3995 31.6705 48.4319 36.1324V39.0215C46.8259 38.7809 45.6213 36.6944 44.947 35.3462C44.8504 35.1375 44.7541 34.9288 44.658 34.7201C44.5777 34.5114 44.3528 34.3992 44.1437 34.4633C43.9674 34.5114 43.7908 34.5757 43.6139 34.6398C42.9719 34.9288 42.4415 35.4264 42.1849 36.0844C41.7192 37.2561 42.1849 38.5081 43.0036 39.3907C44.3528 40.8033 46.5048 41.3167 48.3995 41.413C48.3834 46.9826 48.3995 52.536 48.3995 58.1054C48.4637 58.892 49.5399 59.1007 50.1661 59.1166C50.8247 59.1327 52.2537 58.924 52.2701 58.0253L52.3181 57.335C52.5911 54.8634 54.9676 44.9763 57.9707 44.9602C58.7096 44.9602 59.0791 45.4417 59.0791 46.164V54.9758C59.0791 57.7042 60.6206 59.5339 63.415 59.5339C65.583 59.5501 67.5418 57.9769 68.7143 56.019C68.8748 56.2276 69.0034 56.4522 69.18 56.6448C70.7055 58.4265 72.9539 59.5662 75.5235 59.5822C81.1278 59.5018 84.0023 54.6868 83.794 49.9519C85.0947 49.2297 86.2671 48.2986 87.166 47.1429V58.1054C87.2304 58.892 88.3547 59.1007 88.9812 59.1166C89.6393 59.1327 91.0688 58.924 91.0688 58.0253L91.1329 57.335L91.3254 55.5053C91.6148 52.9534 93.5258 44.9763 96.7857 44.9602C97.508 44.9602 97.8779 45.4417 97.8779 46.164V54.9758C97.8779 57.7042 99.4196 59.5339 102.23 59.5339C104.173 59.5501 105.939 58.2821 107.128 56.6129C108.701 58.5549 111.111 59.6944 114.001 59.6944C117.39 59.6944 119.846 58.2018 121.484 55.7942C121.854 57.8649 122.962 59.5018 125.676 59.5339C128.486 59.5501 130.622 55.6338 131.506 53.2742V59.5822C130.67 59.7265 129.851 59.9353 129.033 60.1759C120.152 62.712 121.854 72.0531 128.47 72.1978C132.951 72.3101 135.584 69.3728 135.568 64.9109C135.568 64.1566 135.552 62.7441 135.568 62.0057C137.158 62.2465 138.379 64.3492 139.037 65.6974C139.149 65.906 139.246 66.1145 139.326 66.3232C139.423 66.532 139.631 66.6282 139.856 66.5799C140.033 66.532 140.209 66.4679 140.37 66.3873C141.028 66.0986 141.559 65.6172 141.815 64.943C142.281 63.7714 141.815 62.5355 140.98 61.6526C139.648 60.2242 137.479 59.7265 135.601 59.6142Z" fill="#F26C25"/>
</svg>
