<svg width="184" height="100" viewBox="0 0 184 100" fill="none" xmlns="http://www.w3.org/2000/svg">
<path d="M24.7008 49.9292L17 64.8583V35H24.7008V49.9292ZM40.0122 49.9292L32.3565 64.8583V35H40.0122V49.9292ZM47.713 35H55.3687V64.8146H47.713V35Z" fill="#E55CFF"/>
<path d="M24.7008 64.8583H17L32.3565 35V49.9292L24.7008 64.8583ZM40.0122 64.8583H32.3565L47.713 35V49.9292L40.0122 64.8583Z" fill="#24235C"/>
<path d="M80.8515 64.456L75.2603 50.4693V64.456H71.9951V44.3612H75.9313L82.1039 59.8086L88.2318 44.3612H92.0785V64.456H88.7686V50.4693L83.3116 64.456H80.8515ZM97.2224 47.5038C96.1489 47.5038 95.1649 46.6186 95.1649 45.512C95.1649 44.4055 96.1042 43.5203 97.2224 43.5203C98.2959 43.5203 99.2799 44.4055 99.2799 45.512C99.2799 46.6186 98.2959 47.5038 97.2224 47.5038ZM98.8774 64.456H95.5674V49.9382H98.8774V64.456ZM109.523 56.843L115.025 64.456H111.267L107.644 59.3217L103.977 64.456H100.443L105.9 56.9758L100.845 49.8939H104.603L107.823 54.4972L111.133 49.8939H114.667L109.523 56.843ZM131.798 49.5841C134.795 49.5841 136.584 51.6644 136.584 54.984V64.456H133.274V55.5152C133.274 53.7004 132.469 52.5496 130.859 52.5496C129.651 52.5496 128.533 53.2578 128.264 54.7185V64.456H124.955V55.5152C124.955 53.7004 124.149 52.5496 122.539 52.5496C121.331 52.5496 120.213 53.2578 119.945 54.7185V64.456H116.635V49.9382H119.945V51.1333C120.661 50.2038 121.958 49.5841 123.613 49.5841C125.268 49.5841 126.744 50.3808 127.504 51.5316C128.443 50.3366 129.83 49.5841 131.798 49.5841ZM147.811 64.456V63.6593C147.319 64.1462 145.843 64.7216 144.188 64.7216C141.191 64.7216 138.686 62.9511 138.686 59.9856C138.686 57.2414 141.146 55.2939 144.412 55.2939C145.754 55.2939 147.23 55.7365 147.811 56.1791V54.984C147.811 53.5234 146.872 52.3726 144.993 52.3726C143.651 52.3726 142.846 52.948 142.488 53.966H139.313C139.76 51.4874 142.041 49.6284 145.083 49.6284C148.795 49.6284 150.987 51.6644 150.987 54.984V64.5003H147.811V64.456ZM147.811 59.3659C147.453 58.4364 146.111 57.9053 144.814 57.9053C143.338 57.9053 141.773 58.525 141.773 59.9856C141.773 61.4462 143.338 62.0659 144.814 62.0659C146.156 62.0659 147.453 61.4905 147.811 60.6053V59.3659ZM161.498 56.843L167 64.456H163.243L159.62 59.3217L155.952 64.456H152.418L157.875 56.9758L152.821 49.8939H156.578L159.799 54.4972L163.109 49.8939H166.642L161.498 56.843Z" fill="#24235C"/>
</svg>
