<svg width="184" height="100" viewBox="0 0 184 100" fill="none" xmlns="http://www.w3.org/2000/svg">
<g clip-path="url(#clip0_8392_55593)">
<path fill-rule="evenodd" clip-rule="evenodd" d="M131.007 57.382C131.69 57.3891 132.367 57.2576 132.993 56.9961C133.618 56.7347 134.179 56.3492 134.637 55.8653L134.63 57.1302H137.528L137.522 45.2863H134.63L134.624 46.5513C133.701 45.5821 132.437 45.0346 130.994 45.0346C127.918 45.0346 125.363 47.7029 125.363 51.2209C125.369 54.7136 127.931 57.382 131.007 57.382V57.382ZM131.462 47.8414C133.142 47.8414 134.498 49.3581 134.492 51.246C134.498 53.0837 133.142 54.5815 131.455 54.5815C129.782 54.5815 128.432 53.134 128.425 51.246C128.432 49.3077 129.789 47.8414 131.462 47.8414ZM142.818 41.0698L145.854 41.0635V57.124L142.818 57.1302V41.0698ZM138.668 41.0698L141.711 41.0635V57.1302L138.668 57.124V41.0698ZM86.1907 41.1705H89.2206L89.2272 43.9962H86.1907V41.1705ZM99.9966 51.2209C99.9966 54.6444 102.724 57.4009 106.063 57.4072C109.001 57.4072 111.089 55.7772 111.78 53.3606H108.54C108.039 54.3109 107.051 54.7451 106.037 54.7451C104.607 54.7451 103.461 53.8389 103.066 52.3977H112.004C112.446 47.7029 109.554 44.9968 106.063 44.9968C102.73 44.9905 99.9966 47.791 99.9966 51.2209V51.2209ZM106.037 47.6589C107.492 47.6526 108.639 48.5336 109.007 49.9056H103.119C103.554 48.5274 104.66 47.6589 106.037 47.6589V47.6589ZM115.924 55.8653C116.381 56.3472 116.939 56.7319 117.562 56.9943C118.185 57.2567 118.859 57.3909 119.54 57.3883C122.629 57.382 125.165 54.7136 125.165 51.2209C125.165 47.7029 122.642 45.0346 119.54 45.0346C118.894 45.0298 118.255 45.15 117.659 45.3879C117.064 45.6259 116.525 45.9767 116.075 46.4191L116.068 41.0761H113.012L113.006 57.1365H115.937L115.924 55.8653V55.8653ZM119.079 47.8351C120.771 47.8351 122.128 49.3077 122.122 51.2398C122.122 53.1214 120.771 54.5752 119.085 54.5752C117.399 54.5752 116.055 53.0837 116.049 51.2398C116.055 49.3581 117.412 47.8414 119.079 47.8351V47.8351ZM93.3637 53.7256V57.1302H90.3272V41.0698H93.3703V49.5846L97.2499 45.2863H101.433L97.0128 49.9056L101.683 57.1302L97.8164 57.124L94.8721 52.1397L93.3637 53.7256V53.7256ZM86.1972 45.2863H89.2272V57.1365H86.1972V45.2863ZM80.0451 57.3253C79.4011 57.3258 78.7636 57.2023 78.1706 56.9623C77.5776 56.7223 77.0413 56.3706 76.5936 55.9282V59.3014H73.5505V45.2863H76.4553V46.5261C76.9109 46.0497 77.4654 45.6693 78.0836 45.4093C78.7017 45.1492 79.3698 45.0152 80.0451 45.0157C83.1278 45.0157 85.6505 47.6715 85.6505 51.1454C85.6505 54.6444 83.1344 57.3253 80.0451 57.3253ZM79.617 47.8288C77.9374 47.8288 76.5936 49.314 76.5936 51.1454C76.5936 52.9956 77.9439 54.5122 79.6104 54.5122C81.2769 54.5122 82.6338 53.0711 82.6272 51.1454C82.6338 49.2448 81.2835 47.8288 79.617 47.8288V47.8288ZM72.523 46.0541H69.4996C69.4996 44.6885 68.3667 43.6564 66.4368 43.6564C64.8362 43.6564 63.3541 44.2731 63.3541 45.4877C63.3475 46.5827 64.4278 46.9729 66.8583 47.4764C70.626 48.2316 73.0104 49.1693 73.0038 52.4166C73.0104 55.4814 70.4481 57.4009 66.4433 57.4072C63.3344 57.4009 59.9422 55.6891 59.9487 51.8691H62.9655C62.9655 53.7445 64.8428 54.6318 66.4433 54.6381C68.1823 54.6381 69.9871 54.0214 69.9871 52.511C69.9871 51.5041 69.1703 50.8873 66.2392 50.3146C63.308 49.742 60.3374 48.8798 60.3374 45.4625C60.3374 42.7438 62.7481 40.8433 66.4499 40.8433C70.626 40.837 72.523 43.5368 72.523 46.0541Z" fill="black"/>
<path fill-rule="evenodd" clip-rule="evenodd" d="M47.1494 40H37.2296L40.1081 42.7942V42.8005C39.1178 43.7449 38.3333 44.8673 37.7996 46.103C37.266 47.3388 36.9939 48.6632 36.9991 50C36.9991 55.5192 41.544 60 47.1494 60C52.7548 60 57.2931 55.5192 57.2931 50C57.2931 44.4808 52.7548 40 47.1494 40ZM47.1494 58.6281C42.3147 58.6218 38.4021 54.764 38.3889 50C38.3825 48.7371 38.6637 47.488 39.213 46.3393C39.7624 45.1907 40.5668 44.1699 41.5704 43.348L42.1698 42.8571L40.6219 41.3719H47.1494C51.9841 41.3782 55.8967 45.236 55.9033 50C55.8967 54.764 51.9841 58.6218 47.1494 58.6281Z" fill="black"/>
<path fill-rule="evenodd" clip-rule="evenodd" d="M47.1506 42.2529C42.8098 42.2529 39.2859 45.7205 39.2859 49.9999C39.2859 54.2794 42.8033 57.747 47.1506 57.747C51.4979 57.747 55.0086 54.2794 55.0086 49.9999C55.0086 45.7205 51.4979 42.2529 47.1506 42.2529ZM47.1506 56.4128C43.5542 56.4065 40.6494 53.5368 40.6428 49.9999C40.6494 46.4568 43.5542 43.5934 47.1506 43.5871C50.747 43.5934 53.6517 46.4568 53.6583 49.9999C53.6517 53.5368 50.747 56.4065 47.1506 56.4128" fill="black"/>
<path fill-rule="evenodd" clip-rule="evenodd" d="M52.7559 50.0001C52.7494 46.9479 50.2464 44.4809 47.1506 44.4746C44.6673 44.4809 42.5727 46.0668 41.8284 48.2632L43.5805 49.9749L41.5518 49.7421C41.5452 49.8302 41.5452 49.912 41.5452 50.0001C41.5518 53.0523 44.0547 55.5193 47.1506 55.5256C49.7326 55.5193 51.9062 53.8012 52.5583 51.4601L51.0302 49.8994L52.7559 50.1134V50.0001ZM47.526 48.175L51.0565 51.7748C50.3781 53.2285 48.8829 54.2418 47.1506 54.2418C45.1943 54.2418 43.5476 52.9579 43.0206 51.2021L47.1703 51.6741L43.3763 47.9611C44.1074 46.6458 45.5236 45.7584 47.1506 45.7584C49.041 45.7584 50.6416 46.9604 51.2212 48.6282L47.526 48.175Z" fill="black"/>
</g>
<defs>
<clipPath id="clip0_8392_55593">
<rect width="110" height="20" fill="white" transform="translate(37 40)"/>
</clipPath>
</defs>
</svg>
