<svg width="184" height="100" viewBox="0 0 184 100" fill="none" xmlns="http://www.w3.org/2000/svg">
<path d="M38.32 44.7432L38.6805 48.2762L38.1758 48.3483C38.1037 48.2041 37.9595 47.9878 37.8153 47.7715C37.1664 46.9062 36.5896 46.2573 36.0128 45.8968C34.7149 44.9595 33.6334 44.8153 32.9845 45.1758C32.4077 45.4642 32.3356 46.1852 32.8403 46.6899C32.9845 46.8341 33.1287 46.9784 33.4171 47.1226L36.6617 48.7809C39.041 50.0066 39.9063 51.8092 39.6179 53.9001C39.1852 56.7842 36.8059 58.3705 31.5424 57.8658C30.8935 57.7937 30.2446 57.7216 29.7399 57.5774C28.5141 57.2168 27.9373 57.0005 27.3605 56.5679V52.6744H27.8652L28.3699 53.5396C29.1631 54.9096 30.0283 55.7748 30.8214 56.2795C32.4077 57.2168 33.4171 56.7121 33.6334 55.919C33.7776 55.3422 33.5613 54.8375 32.6961 54.2607C32.5519 54.1886 32.4798 54.1165 32.3356 54.0444L29.6678 52.6744C29.3794 52.5302 29.091 52.3139 28.8747 52.0976C27.5047 50.944 27 49.7182 27 48.2041C27.1442 45.1758 29.6678 43.1569 35.0754 43.878C36.3012 44.0222 37.3106 44.3106 38.32 44.7432Z" fill="#685BC7"/>
<path d="M40.1226 69.1138V68.3928L40.9878 68.1765C41.0599 68.1765 41.2041 68.1044 41.3483 68.0323C41.7088 67.816 41.9251 67.4554 41.9251 66.5902V47.2669L40.1947 46.5458V46.0411C42.2856 45.7527 44.3045 45.248 46.2512 44.6712C46.828 44.527 47.3328 44.3107 47.9096 44.0944H48.4143V45.7527C49.0632 45.1759 49.7121 44.6712 50.6495 44.3107C51.01 44.1665 51.3705 44.0223 51.731 43.9502C55.6966 43.0128 59.1575 46.3295 58.7249 50.5836C58.6528 51.4488 58.3644 52.3861 57.9318 53.3234C56.5618 56.2075 54.1104 57.8659 50.7216 58.0101C50.4332 58.0101 50.1447 58.0101 49.7842 58.0101L48.4143 57.8659V66.6623C48.4143 67.4554 48.8469 68.0323 49.2795 68.1044L50.4332 68.3928V69.1138C50.4332 69.0417 40.1226 69.1138 40.1226 69.1138ZM48.7027 55.9191C49.1353 56.8564 50.2168 57.0727 50.9379 56.3517C51.5868 55.6307 51.9473 54.5492 51.9473 52.0256C51.9473 51.4488 51.9473 50.872 51.8031 50.2952C51.3705 47.0506 50.2168 45.969 49.2795 46.1132C48.6306 46.2574 48.4143 46.5458 48.4143 47.6995V53.8282C48.4143 54.9818 48.4864 55.4865 48.7027 55.9191Z" fill="#685BC7"/>
<path d="M58.8691 46.5457V46.041C59.5902 45.8968 60.3112 45.8247 61.1043 45.6084C62.979 45.2479 64.7815 44.0942 66.6562 44.0942H67.0888V55.0538C67.0888 55.198 67.0888 55.2701 67.0888 55.4143C67.1609 56.1353 67.4493 56.4237 67.8819 56.64C67.954 56.64 68.0261 56.7121 68.0261 56.7121L68.6029 56.8563V57.5773H58.9412V56.8563L59.5902 56.7121C59.6623 56.7121 59.6623 56.64 59.8065 56.64C60.4554 56.3516 60.7438 55.919 60.7438 55.0538V47.1946L58.8691 46.5457Z" fill="#685BC7"/>
<path d="M70.189 46.5457V46.041C72.2799 45.7526 74.2988 45.2479 76.2455 44.6711C76.8224 44.5269 77.3271 44.3106 77.9039 44.0943H78.4086V45.6805L80.4275 44.7432C81.1485 44.3827 81.8695 44.2385 82.5184 44.0943C85.1862 43.6616 86.9887 44.5269 87.7098 46.1852C87.9261 46.6899 87.9982 47.1946 87.9982 47.6994V55.7027C87.9982 56.3516 88.575 56.7842 89.2239 56.8563H89.5844V57.5773H80.4275V56.8563L80.9322 56.7121C81.509 56.5679 81.6532 56.1353 81.6532 55.0538V47.9878C81.6532 47.0504 81.2206 46.5457 80.4275 46.4015C80.2833 46.4015 79.5622 46.4736 79.3459 46.5457C78.7691 46.9062 78.5528 47.2667 78.5528 48.132V54.5491V55.0538C78.5528 55.4864 78.6249 55.7748 78.697 55.9911C78.7691 56.2795 78.9854 56.4237 79.1296 56.5679L79.6343 56.8563V57.5773H70.2611V56.8563H70.6216C70.7658 56.8563 70.91 56.7842 71.0542 56.7121L71.2705 56.64C71.7031 56.4237 71.9194 56.1353 71.9915 55.4143C71.9915 55.2701 71.9915 55.198 71.9915 55.0538V47.2667L70.189 46.5457Z" fill="#685BC7"/>
<path d="M99.3184 44.3826V38.6145L97.5159 37.8213L97.588 37.3166C99.03 37.1003 100.544 36.8119 101.914 36.4514C103.068 36.163 104.077 35.3699 105.231 35.3699H105.735V55.3421L107.538 56.1353V56.5679L99.751 57.7936L99.3184 57.7215V55.9911C99.3184 55.9911 98.1648 56.7842 97.8043 56.9284C93.4781 59.1635 89.7288 56.8563 89.2962 52.386C89.2241 51.9533 89.2241 51.5207 89.2241 51.0881C89.3683 46.762 92.3245 43.8779 96.4343 43.7337C97.0111 43.7337 97.5159 43.7337 98.309 43.95C98.309 44.0942 99.3184 44.3826 99.3184 44.3826ZM99.3184 48.0598C99.3184 46.6899 99.1021 46.1131 98.8858 45.7526C98.3811 44.9594 97.3717 44.8152 96.7948 45.6084C96.218 46.2573 95.9296 47.3388 95.7854 49.574C95.7854 50.2229 95.6412 52.7465 96.4343 53.9722C97.2274 55.27 98.3811 55.6305 99.1742 54.8374C99.2463 54.7653 99.2463 54.6932 99.3184 54.6932V48.7088C99.3184 48.4924 99.3184 48.2761 99.3184 48.0598Z" fill="#685BC7"/>
<path d="M107.826 46.5458V46.0411C110.494 45.6085 113.09 44.9596 115.613 44.0944H116.046V46.5458L117.416 45.1038C118.065 44.4549 118.569 44.2386 119.074 44.0944C120.588 43.806 121.67 44.527 122.03 45.8248C122.174 46.4016 122.102 47.0506 121.814 47.5553C121.381 48.4205 120.588 48.9252 119.579 48.8531C118.209 48.8531 117.272 47.4832 117.272 47.4832C116.983 47.339 116.839 47.1948 116.695 47.339C116.623 47.4111 116.478 47.5553 116.478 47.6995L116.262 48.2042C116.19 48.4205 116.118 48.7089 116.118 49.0694C116.118 49.1415 116.118 49.2857 116.118 49.3578V55.0539C116.118 56.0633 116.478 56.4959 117.199 56.7122L117.848 56.8564V57.5775H107.826V56.8564C107.826 56.8564 108.691 56.6401 108.763 56.568C109.34 56.3517 109.629 55.9191 109.629 55.0539V48.781V47.2669L107.826 46.5458Z" fill="#685BC7"/>
<path d="M122.463 46.5457V46.041C123.184 45.8968 123.905 45.8247 124.698 45.6084C126.573 45.2479 128.376 44.0942 130.25 44.0942H130.683V55.0538C130.683 55.198 130.683 55.2701 130.683 55.4143C130.755 56.1353 131.043 56.4237 131.476 56.64C131.548 56.64 131.62 56.7121 131.62 56.7121L132.197 56.8563V57.5773H122.391V56.8563L123.04 56.7121C123.112 56.7121 123.184 56.64 123.256 56.64C123.905 56.3516 124.194 55.919 124.194 55.0538V47.1946L122.463 46.5457Z" fill="#685BC7"/>
<path d="M133.207 57.5774V56.8564L133.855 56.7122C133.928 56.7122 134 56.6401 134.072 56.6401C134.649 56.4238 134.865 56.0633 135.009 55.4143C135.009 55.2701 135.081 55.198 135.081 55.0538V45.8248H133.423L133.783 44.1664H135.081L135.153 43.4454C135.298 42.5802 135.658 41.3544 136.379 40.0566C137.965 37.3888 140.056 36.0189 142.364 35.6584C145.248 35.2258 147.05 36.0189 147.699 37.0283C148.276 37.8935 147.987 39.1193 146.906 39.6961C146.69 39.7682 146.545 39.8403 146.329 39.9124C144.166 40.4892 143.012 39.4077 142.94 37.8214V37.3167C142.94 36.9562 142.796 36.812 142.58 36.812C142.436 36.812 142.219 36.9562 142.075 37.2446C141.931 37.4609 141.859 37.7493 141.787 38.4704C141.787 38.6146 141.787 38.8309 141.787 38.9751V40.2008V44.2385H144.671L144.238 45.8969H141.57V55.1259C141.57 56.1354 141.859 56.568 142.58 56.7843L143.157 56.9285V57.6495L133.207 57.5774Z" fill="#685BC7"/>
<path d="M145.247 45.0317C147.843 43.5896 150.438 41.8592 152.818 40.0566L153.034 40.2008V44.0944H156.639L156.207 45.5364H153.034V53.6118V54.6213C153.034 55.7028 153.827 56.4238 154.981 55.847L155.846 55.4144V56.2075C155.197 56.7843 154.404 57.1448 153.322 57.5053C152.89 57.6495 152.457 57.7216 151.88 57.7216C147.699 58.01 146.617 57.0006 146.617 53.8281V45.6085H145.319L145.247 45.0317Z" fill="#685BC7"/>
<path d="M124.986 37.2444H125.347V37.3165H125.563V37.3886L125.779 37.3165C125.419 37.3165 125.347 36.956 124.986 37.2444Z" fill="#685BC7"/>
<path d="M124.77 36.9562V37.1004L124.986 37.1725C124.914 37.1004 124.842 37.0283 124.77 36.9562Z" fill="#685BC7"/>
<path d="M124.626 37.8215L124.554 37.461L124.41 37.3889C124.482 37.7494 124.554 38.1099 124.842 38.2541L124.626 37.8215Z" fill="#685BC7"/>
<path d="M128.303 38.4703C128.375 38.3261 128.375 38.1819 128.303 38.0377L128.087 38.7587C128.231 38.6866 128.231 38.5424 128.303 38.4703Z" fill="#685BC7"/>
<path d="M128.015 37.3889C127.943 37.5331 127.943 37.6052 128.087 37.7494L128.015 37.3889Z" fill="#685BC7"/>
<path d="M128.159 37.533C128.087 37.6772 128.231 37.8214 128.303 37.9656L128.159 37.533Z" fill="#685BC7"/>
<path d="M124.698 41.3545C124.41 41.2824 124.194 41.2103 124.121 41.1382H123.833H123.905L124.842 41.4987C124.987 41.4987 125.131 41.5708 125.203 41.4987C125.059 41.5708 124.915 41.4266 124.698 41.3545Z" fill="#685BC7"/>
<path d="M124.121 41.1382C124.698 41.0661 123.833 40.994 124.121 41.1382V41.1382Z" fill="#685BC7"/>
<path d="M128.808 40.2007L128.375 40.5612C128.736 40.3449 129.024 40.0565 129.24 39.7681L129.096 39.8402C129.024 39.9844 128.952 40.1286 128.808 40.2007Z" fill="#685BC7"/>
<path d="M125.131 39.624C125.563 39.8403 125.924 39.9124 126.357 39.8403C127.078 40.0566 127.871 39.624 128.159 39.0471C128.448 38.6145 128.736 37.8214 128.231 37.4609L128.159 37.533L128.087 37.3888C127.871 36.9562 127.654 36.6678 127.294 36.4515C127.294 36.3794 127.15 36.5236 127.078 36.5236H126.933C126.789 36.5957 126.501 36.5957 126.501 36.8841C126.429 36.9562 126.357 36.9562 126.357 37.0283L126.212 36.9562C125.996 36.9562 125.852 36.9562 125.78 37.1004H125.708V37.1725C125.347 37.0283 125.275 36.6678 124.987 36.9562V36.8841C124.915 36.812 124.915 36.7399 124.77 36.5957V36.7399H124.482V36.6678L124.41 36.5957C124.266 36.3794 124.338 36.091 124.194 36.091C124.121 36.091 124.049 36.2352 124.121 36.4515H124.049C124.049 36.2352 123.833 36.3794 123.833 36.2352C123.833 36.0189 123.977 35.8747 124.049 35.7304C124.41 35.0094 124.987 34.6489 125.563 34.2163H125.636C125.996 34.0721 126.357 34 126.717 34L126.645 34.0721C126.933 34.0721 127.222 34.1442 127.51 34.1442C128.303 34.0721 129.024 34.5047 129.601 35.0815C130.25 35.7304 130.538 36.5957 130.683 37.533C130.611 37.1725 130.466 36.812 130.322 36.3794L130.178 35.8747L130.322 36.3794C130.538 37.0283 130.466 37.6772 130.611 38.254L130.538 38.3261C130.466 38.7587 130.25 39.0471 130.178 39.4077C130.178 39.4077 130.106 39.5519 130.178 39.5519C129.962 39.8403 129.817 40.2729 129.529 40.4892L129.241 40.9218C128.231 41.9312 126.717 42.2917 125.059 42.0033C124.626 41.9312 124.266 41.6428 123.905 41.4265C124.482 41.7149 125.059 41.8591 125.708 41.8591C126.284 42.0033 126.861 42.0754 127.294 41.787L127.582 41.6428C127.005 41.9312 126.357 41.9312 125.708 41.8591C125.347 41.7149 124.987 41.7149 124.698 41.4986C124.915 41.6428 125.203 41.5707 125.491 41.6428C125.996 41.787 126.501 41.9312 126.861 41.7149L127.005 41.6428L127.294 41.4986C126.933 41.6428 126.573 41.7149 126.212 41.6428L125.491 41.5707L125.059 41.4265H125.131C125.275 41.4265 125.708 41.1381 125.563 40.9939C124.698 40.8497 123.617 40.0566 123.689 39.9845C123.689 39.9124 125.059 40.6334 124.987 40.4892L124.77 40.345L124.987 40.4171C125.131 40.4892 125.275 40.6334 125.419 40.5613C125.852 40.4171 126.212 40.5613 126.573 40.4892C126.789 40.345 127.078 40.2008 127.294 39.9845C127.294 39.9124 127.438 39.9124 127.366 39.8403C127.582 39.8403 127.871 39.7682 127.799 39.4798V39.4077C128.087 39.1913 128.231 38.975 128.303 38.6866L128.448 38.3982C128.448 38.4703 128.303 38.5424 128.303 38.6145V38.6866C128.231 38.975 128.015 39.0471 127.871 39.3356V39.4798H127.799V39.5519C127.654 39.8403 127.294 39.8403 127.078 39.9845C126.645 40.2729 126.14 40.0566 125.708 39.9124L126.429 39.8403H125.636H125.491L125.275 39.6961L125.419 39.8403L125.203 39.9124C124.338 39.624 123.689 38.6866 123.617 37.7493L123.761 37.8214C123.833 38.254 123.905 38.6866 124.338 38.8308C124.194 38.6145 124.049 38.5424 123.977 38.3261H124.049L123.905 37.8214L124.194 37.9656C124.266 38.0377 124.266 38.1098 124.338 38.254C124.554 38.6866 124.842 39.1192 125.203 39.3356C125.563 39.5519 125.852 39.8403 126.284 39.8403C125.924 39.9124 125.563 39.7682 125.131 39.624ZM125.636 35.9468C125.419 35.9468 125.419 36.3073 125.275 36.5236C125.419 36.3794 125.419 36.091 125.636 35.9468ZM129.096 37.1004C128.88 36.8841 128.88 36.5236 128.592 36.3794C128.52 36.3073 128.375 36.3073 128.303 36.2352C128.231 36.1631 128.159 36.091 128.015 36.091V36.1631C127.871 36.0189 127.654 36.1631 127.582 36.0189L127.51 36.091C127.438 36.0189 127.294 35.9468 127.222 36.0189L126.933 36.091L126.861 36.1631L126.717 36.2352L126.789 36.1631L127.15 36.091C127.438 36.0189 127.799 36.1631 128.087 36.3073L128.303 36.4515C128.592 36.5236 128.592 36.8841 128.88 37.0283C129.024 37.0283 129.024 37.1004 129.096 37.1004ZM130.611 37.4609C130.466 36.8841 130.25 36.3073 130.106 35.8747C129.89 35.5141 129.024 34.721 128.88 35.2257C129.962 34.9373 130.106 37.8214 130.611 37.4609ZM128.303 41.4986C128.52 41.4265 128.736 41.2102 128.952 41.066C128.736 41.2823 128.592 41.4265 128.303 41.4986ZM129.241 39.1192C129.169 39.7682 128.52 40.1287 128.087 40.5613C127.654 40.7776 127.078 40.7776 126.645 40.9218V40.9939H126.717C126.933 41.066 127.078 41.066 127.222 41.066H127.294L127.654 40.9939L127.799 40.9218C128.448 40.8497 128.952 40.2729 129.313 39.7682C129.457 39.4798 129.457 39.1192 129.529 38.7587C129.385 38.9029 129.313 39.0471 129.241 39.1192Z" fill="#685BC7"/>
<path d="M125.78 40.1286C125.563 40.1286 125.419 39.9844 125.275 39.9123L124.842 39.7681C124.193 39.4076 123.689 38.5424 123.617 37.7493C123.544 37.7493 123.4 37.7493 123.328 37.7493C123.328 38.7587 123.977 39.6239 124.77 40.2728C125.203 40.3449 125.78 40.7776 126.284 40.6333C126.789 40.5612 127.222 40.4891 127.582 40.2007C126.933 40.417 126.356 40.2728 125.78 40.1286Z" fill="#685BC7"/>
<path d="M128.087 37.7493C128.087 37.8214 128.159 37.8935 128.087 37.9656C127.943 38.1098 128.087 38.4703 127.871 38.6866C128.015 38.6145 128.087 38.3982 128.159 38.254C128.303 38.1098 128.231 37.8935 128.087 37.7493Z" fill="#685BC7"/>
<path d="M127.798 38.8308L127.942 38.6145C127.726 38.7587 127.582 38.975 127.293 39.0471C126.933 39.3355 126.284 39.3355 125.779 39.1913L125.563 39.1192C126.356 39.8402 127.87 39.7681 128.159 38.7587V38.6866C127.87 38.9029 127.582 39.1913 127.221 39.2634C127.438 39.1913 127.654 39.1192 127.798 38.8308Z" fill="#685BC7"/>
<path d="M125.924 40.1287L125.852 40.0566H125.708L125.78 40.1287H125.924Z" fill="#685BC7"/>
<path d="M127.149 41.138L127.654 40.9938C127.87 40.8496 128.087 40.8496 128.303 40.6333C127.943 40.8496 127.51 40.9217 127.149 41.138Z" fill="#685BC7"/>
<path d="M128.952 41.4266L129.241 41.2824L129.313 41.1382L129.096 41.2824L128.952 41.4266Z" fill="#685BC7"/>
<path d="M130.755 38.3261C130.682 39.3356 130.178 40.4171 129.385 41.066L129.312 41.2102C129.961 40.8497 130.394 40.2729 130.538 39.624C130.61 39.4798 130.61 39.2634 130.61 39.1913C130.827 38.6866 130.755 38.1098 130.755 37.6051V38.3261V38.3261Z" fill="#685BC7"/>
<path d="M61.1045 37.1726V37.2447H61.1766L61.1045 37.1726Z" fill="#685BC7"/>
<path d="M61.1763 37.2444H61.5368V37.3165H61.7531V37.3886L61.9694 37.3165C61.5368 37.3165 61.4647 36.956 61.1763 37.2444Z" fill="#685BC7"/>
<path d="M60.8879 36.9562V37.1004L61.1042 37.1725C61.1042 37.1004 61.0321 37.0283 60.8879 36.9562Z" fill="#685BC7"/>
<path d="M60.7436 37.8215L60.6715 37.461L60.5273 37.3889C60.6715 37.7494 60.6715 38.1099 60.96 38.2541L60.7436 37.8215Z" fill="#685BC7"/>
<path d="M64.4932 38.4703C64.5653 38.3261 64.5653 38.1819 64.4932 38.0377L64.2769 38.8308C64.4211 38.6866 64.4211 38.5424 64.4932 38.4703Z" fill="#685BC7"/>
<path d="M64.1328 37.3889C64.0607 37.5331 64.0607 37.6052 64.2049 37.7494L64.1328 37.3889Z" fill="#685BC7"/>
<path d="M64.349 37.533C64.2769 37.6772 64.4211 37.8214 64.4932 37.9656L64.349 37.533Z" fill="#685BC7"/>
<path d="M60.8882 41.3545C60.5998 41.2824 60.3835 41.2103 60.3114 41.1382H60.0229H60.0951L61.0324 41.4987C61.1766 41.4987 61.3208 41.5708 61.3929 41.4987C61.1766 41.5708 61.0324 41.4266 60.8882 41.3545Z" fill="#685BC7"/>
<path d="M60.3112 41.1382C60.888 41.0661 59.9507 40.994 60.3112 41.1382V41.1382Z" fill="#685BC7"/>
<path d="M64.9258 40.2007L64.4932 40.5612C64.8537 40.3449 65.1421 40.0565 65.3584 39.7681L65.2142 39.8402C65.1421 39.9844 65.07 40.1286 64.9258 40.2007Z" fill="#685BC7"/>
<path d="M61.3208 39.624C61.7534 39.8403 62.1139 39.9124 62.5465 39.8403C63.2675 40.0566 64.0607 39.624 64.3491 39.0471C64.6375 38.6145 64.9259 37.8214 64.4212 37.4609L64.3491 37.533L64.2049 37.3888C63.9886 36.9562 63.7723 36.6678 63.4117 36.4515C63.4117 36.3794 63.2675 36.5236 63.1954 36.5236H63.0512C62.8349 36.5957 62.6186 36.5957 62.6186 36.8841C62.6186 36.8841 62.4744 36.9562 62.4744 37.0283L62.3302 36.9562C62.1139 36.9562 61.9697 36.9562 61.8976 37.1004H61.8255V37.1725C61.465 37.0283 61.3929 36.6678 61.1045 36.9562V36.8841C61.0324 36.812 61.0324 36.7399 60.8882 36.5957V36.7399L60.744 36.6678V36.5957L60.6719 36.5236C60.3835 36.3794 60.4556 36.091 60.3114 36.091C60.2393 36.091 60.1672 36.2352 60.2393 36.4515H60.1672C60.1672 36.2352 59.9508 36.3794 59.9508 36.2352C59.9508 36.0189 60.095 35.8747 60.1672 35.7304C60.5277 35.0094 61.1045 34.6489 61.6813 34.2163H61.7534C62.1139 34.0721 62.4744 34 62.8349 34L62.7628 34.0721C63.0512 34.0721 63.3396 34.1442 63.628 34.1442C64.4212 34.0721 65.1422 34.5047 65.719 35.0815C66.3679 35.7304 66.6563 36.5957 66.8005 37.533C66.7284 37.1725 66.5842 36.812 66.44 36.3794L66.2958 35.8747L66.5842 36.3794C66.8005 37.1004 66.7284 37.6772 66.8726 38.3261L66.8005 38.3982C66.7284 38.8308 66.5121 39.1192 66.44 39.4798C66.44 39.4798 66.3679 39.624 66.44 39.624C66.2237 39.9124 66.0795 40.345 65.7911 40.5613L65.5027 40.9939C64.4933 42.0033 62.9791 42.3638 61.3208 42.0754C60.8882 42.0033 60.5277 41.7149 60.1672 41.4986C60.744 41.787 61.3208 41.9312 61.9697 41.9312C62.5465 42.0754 63.1233 42.1475 63.5559 41.8591L63.8444 41.7149C63.2675 42.0033 62.6186 42.0033 61.9697 41.9312C61.6092 41.787 61.2487 41.787 60.9603 41.5707C61.1766 41.7149 61.5371 41.6428 61.7534 41.7149C62.2581 41.8591 62.7628 42.0033 63.1233 41.787L63.2675 41.7149L63.5559 41.5707C63.1954 41.7149 62.8349 41.787 62.4744 41.7149L61.7534 41.6428L61.3208 41.4986H61.3929C61.5371 41.4986 61.9697 41.2102 61.8255 41.066C60.9603 40.9218 59.8787 40.1287 59.9508 40.0566C59.9508 39.9845 61.3208 40.7055 61.2487 40.5613L61.0324 40.4171L61.2487 40.4892C61.3929 40.5613 61.5371 40.7055 61.6813 40.6334C62.1139 40.4892 62.4744 40.6334 62.8349 40.5613C63.0512 40.4171 63.3396 40.2729 63.5559 40.0566C63.5559 39.9845 63.7002 39.9845 63.628 39.9124C63.8444 39.9124 64.1328 39.8403 64.0607 39.5519V39.4798C64.3491 39.2634 64.4933 39.0471 64.5654 38.7587L64.7096 38.4703C64.6375 38.5424 64.5654 38.6145 64.5654 38.6866V38.7587C64.6375 39.1192 64.4212 39.2634 64.277 39.4798V39.624H64.2049V39.6961C64.0607 39.9845 63.7002 39.9845 63.4838 40.1287C63.0512 40.4171 62.5465 40.2008 62.1139 40.0566L62.8349 39.9845H62.0418H61.8976L61.6813 39.8403L61.8255 39.9845L61.3929 39.8403C60.5277 39.5519 59.8787 38.6145 59.8066 37.6772L59.9508 37.8214C60.0229 38.254 60.095 38.6866 60.5277 38.8308C60.3835 38.6145 60.2393 38.5424 60.1672 38.3261H60.2393L60.095 37.8214L60.3835 37.9656C60.4556 38.0377 60.4556 38.1098 60.5277 38.254C60.744 38.6866 60.9603 39.1192 61.3929 39.3356C61.7534 39.5519 62.1139 39.7682 62.4744 39.8403C62.0418 39.9124 61.6813 39.7682 61.3208 39.624ZM61.7534 35.9468C61.5371 35.9468 61.5371 36.3073 61.3929 36.5236C61.6092 36.3794 61.5371 36.091 61.7534 35.9468ZM65.2143 37.1004C64.998 36.8841 64.998 36.5236 64.7096 36.3794C64.6375 36.3073 64.4933 36.3073 64.4212 36.2352C64.3491 36.1631 64.277 36.091 64.1328 36.091V36.1631C63.9886 36.0189 63.7723 36.1631 63.7002 36.0189L63.628 36.091C63.5559 36.0189 63.4117 35.9468 63.3396 36.0189L63.0512 36.091L62.9791 36.1631L62.8349 36.2352L62.907 36.1631L63.2675 36.091C63.5559 36.0189 63.9165 36.1631 64.2049 36.3073L64.4212 36.4515C64.7096 36.5236 64.7096 36.8841 64.998 37.0283C65.1422 37.0283 65.1422 37.1004 65.2143 37.1004ZM66.8005 37.4609C66.6563 36.8841 66.44 36.3073 66.2958 35.8747C66.0795 35.5141 65.2143 34.721 65.0701 35.2257C66.1516 34.9373 66.2958 37.8214 66.8005 37.4609ZM64.4212 41.4986C64.6375 41.4265 64.8538 41.2102 65.0701 41.066C64.9259 41.2823 64.7096 41.4265 64.4212 41.4986ZM65.4306 39.1192C65.3585 39.7682 64.7096 40.1287 64.277 40.5613C63.8444 40.7776 63.2675 40.7776 62.8349 40.9218V40.9939H62.907C63.1233 41.066 63.2675 41.066 63.4117 41.066H63.4838L63.8444 40.9939L63.9886 40.9218C64.6375 40.8497 65.1422 40.2729 65.5027 39.7682C65.6469 39.4798 65.6469 39.1192 65.719 38.7587C65.5027 38.9029 65.4306 39.0471 65.4306 39.1192Z" fill="#685BC7"/>
<path d="M61.8975 40.1286C61.6812 40.1286 61.537 39.9844 61.3928 39.9123L60.9602 39.7681C60.3113 39.4076 59.8066 38.5424 59.7345 37.7493C59.6624 37.7493 59.5181 37.7493 59.446 37.7493C59.446 38.7587 60.095 39.6239 60.8881 40.2728C61.3207 40.3449 61.8975 40.7776 62.4022 40.6333C62.9069 40.5612 63.3396 40.4891 63.7001 40.2007C63.0511 40.417 62.4743 40.2728 61.8975 40.1286Z" fill="#685BC7"/>
<path d="M64.2048 37.7493C64.2048 37.8214 64.2769 37.8935 64.2048 37.9656C64.0606 38.1098 64.2048 38.4703 63.9885 38.6866C64.1327 38.6145 64.2048 38.3982 64.2769 38.254C64.4211 38.1098 64.349 37.8935 64.2048 37.7493Z" fill="#685BC7"/>
<path d="M63.9164 38.8308L63.9885 38.6145C63.7722 38.7587 63.628 38.975 63.3396 39.0471C62.9791 39.3355 62.3302 39.3355 61.8254 39.1913L61.6091 39.1192C62.4023 39.8402 63.9164 39.7681 64.2048 38.7587V38.6866C63.9164 38.9029 63.628 39.1913 63.2675 39.2634C63.5559 39.1913 63.7722 39.1192 63.9164 38.8308Z" fill="#685BC7"/>
<path d="M62.1138 40.1287L61.9696 40.0566H61.8254L61.8975 40.1287H62.1138Z" fill="#685BC7"/>
<path d="M63.3396 41.138L63.8443 40.9938C64.0606 40.8496 64.2769 40.8496 64.4932 40.6333C64.1327 40.8496 63.7001 40.9217 63.3396 41.138Z" fill="#685BC7"/>
<path d="M65.1421 41.4266L65.3584 41.2824L65.4305 41.1382L65.2863 41.2824L65.1421 41.4266Z" fill="#685BC7"/>
<path d="M66.8727 38.3261C66.8006 39.3355 66.2959 40.417 65.5028 41.066L65.4307 41.2102C66.0796 40.8497 66.5122 40.2728 66.6564 39.6239C66.7285 39.4076 66.7285 39.2634 66.8006 39.1192C67.0169 38.6145 66.9448 38.0377 66.9448 37.533L66.8727 38.3261Z" fill="#685BC7"/>
<path d="M157 41.2102C157 41.9312 156.423 42.508 155.702 42.508C154.981 42.508 154.404 41.9312 154.404 41.2102C154.404 40.4892 154.981 39.9124 155.702 39.9124C156.423 39.9845 157 40.4892 157 41.2102ZM154.765 41.2102C154.765 41.787 155.197 42.2196 155.774 42.2196C156.279 42.2196 156.784 41.787 156.784 41.2102C156.784 40.6334 156.351 40.2008 155.774 40.2008C155.197 40.2008 154.765 40.6334 154.765 41.2102ZM155.774 40.4892C155.991 40.4892 156.279 40.5613 156.279 40.8497C156.279 41.066 156.135 41.1381 155.991 41.2102L156.279 41.8591H155.991L155.774 41.2823H155.558V41.8591H155.27V40.4892H155.774ZM155.558 40.7055V41.1381H155.774C155.918 41.1381 156.063 41.066 156.063 40.9218C156.063 40.7776 155.991 40.7055 155.846 40.7055H155.558V40.7055Z" fill="#685BC7"/>
</svg>
